<?xml version="1.0" encoding="utf-8"?>
<!-- Generator: Adobe Illustrator 21.0.0, SVG Export Plug-In . SVG Version: 6.00 Build 0)  -->
<svg version="1.1" id="Layer_1" xmlns="http://www.w3.org/2000/svg" xmlns:xlink="http://www.w3.org/1999/xlink" x="0px" y="0px"
	 viewBox="0 0 1000 1000" style="enable-background:new 0 0 1000 1000;" xml:space="preserve">
<style type="text/css">
	.st0{fill:#FFFFFF;}
</style>
<g>
	<path class="st0" d="M290.8,542.5c-5.6,0-10.8-0.8-15.5-2.5c-4.8-1.7-8.8-4.1-12.2-7.4c-3.4-3.3-6.1-7.4-7.9-12.3
		c-1.9-4.9-2.8-10.6-2.8-17c0-6,0.9-11.4,2.7-16.3c1.8-4.9,4.4-9,7.8-12.5c3.3-3.3,7.3-5.9,12.2-7.8c4.9-1.8,10.2-2.7,15.9-2.7
		c3.2,0,6,0.2,8.6,0.5c2.6,0.4,4.9,0.8,7.1,1.4c2.3,0.6,4.3,1.4,6.2,2.2c1.8,0.8,3.5,1.5,4.8,2.2v18.3h-2.2
		c-0.9-0.8-2.1-1.8-3.6-2.9c-1.4-1.1-3.1-2.2-4.9-3.3c-1.9-1.1-3.9-2-6-2.7c-2.2-0.7-4.5-1.1-6.9-1.1c-2.7,0-5.3,0.4-7.8,1.3
		c-2.5,0.9-4.8,2.3-6.8,4.3c-2,1.9-3.6,4.5-4.8,7.6c-1.2,3.2-1.9,7-1.9,11.5c0,4.7,0.7,8.7,2,11.8c1.3,3.2,3,5.7,5,7.5
		c2.1,1.9,4.4,3.2,6.9,4c2.5,0.8,5,1.2,7.5,1.2c2.4,0,4.7-0.4,7-1.1c2.3-0.7,4.5-1.7,6.4-2.9c1.7-1,3.2-2,4.6-3.1
		c1.4-1.1,2.6-2.1,3.5-2.9h2V536c-1.9,0.8-3.7,1.6-5.4,2.4c-1.7,0.7-3.5,1.4-5.4,1.9c-2.5,0.7-4.8,1.3-6.9,1.6
		C297.5,542.3,294.6,542.5,290.8,542.5z"/>
	<path class="st0" d="M365.3,535c-1,0.7-2.2,1.6-3.7,2.7c-1.5,1-2.8,1.9-4.1,2.5c-1.8,0.8-3.7,1.4-5.6,1.8c-1.9,0.4-4,0.6-6.3,0.6
		c-5.4,0-9.9-1.7-13.6-5c-3.7-3.3-5.5-7.6-5.5-12.8c0-4.2,0.9-7.6,2.8-10.2c1.9-2.6,4.5-4.7,7.9-6.2c3.4-1.5,7.6-2.6,12.6-3.2
		c5-0.6,10.2-1.1,15.6-1.4v-0.3c0-3.1-1.3-5.3-3.9-6.5c-2.6-1.2-6.4-1.8-11.4-1.8c-3,0-6.2,0.5-9.6,1.6c-3.4,1.1-5.9,1.9-7.4,2.5
		h-1.7v-13.7c1.9-0.5,5.1-1.1,9.4-1.8c4.3-0.7,8.7-1,13.1-1c10.4,0,17.9,1.6,22.5,4.8s6.9,8.2,6.9,15v38.7h-18.1V535z M365.3,526.2
		v-11.8c-2.5,0.2-5.1,0.5-8,0.8c-2.9,0.4-5.1,0.8-6.5,1.2c-1.8,0.6-3.2,1.4-4.2,2.5c-1,1.1-1.4,2.5-1.4,4.3c0,1.2,0.1,2.1,0.3,2.9
		c0.2,0.7,0.7,1.4,1.5,2.1c0.8,0.7,1.7,1.2,2.8,1.5c1.1,0.3,2.8,0.5,5.1,0.5c1.8,0,3.7-0.4,5.6-1.1
		C362.2,528.4,363.9,527.4,365.3,526.2z"/>
	<path class="st0" d="M436.6,540.6c-2,0.5-4,0.9-6.2,1.2c-2.2,0.3-4.9,0.4-8.1,0.4c-7.1,0-12.4-1.4-15.8-4.3
		c-3.5-2.9-5.2-7.8-5.2-14.8v-26.6h-7.5v-12.4h7.5v-16.3h18.3v16.3h17v12.4h-17v20.2c0,2,0,3.7,0.1,5.2c0,1.5,0.3,2.8,0.8,4
		c0.5,1.2,1.3,2.1,2.5,2.8c1.2,0.7,2.9,1,5.2,1c0.9,0,2.2-0.2,3.7-0.6c1.5-0.4,2.6-0.8,3.2-1.1h1.5V540.6z"/>
	<path class="st0" d="M482,535c-1,0.7-2.2,1.6-3.7,2.7c-1.5,1-2.8,1.9-4.1,2.5c-1.8,0.8-3.7,1.4-5.6,1.8c-1.9,0.4-4,0.6-6.3,0.6
		c-5.4,0-9.9-1.7-13.6-5c-3.7-3.3-5.5-7.6-5.5-12.8c0-4.2,0.9-7.6,2.8-10.2c1.9-2.6,4.5-4.7,7.9-6.2c3.4-1.5,7.6-2.6,12.6-3.2
		c5-0.6,10.2-1.1,15.6-1.4v-0.3c0-3.1-1.3-5.3-3.9-6.5c-2.6-1.2-6.4-1.8-11.4-1.8c-3,0-6.2,0.5-9.6,1.6c-3.4,1.1-5.9,1.9-7.4,2.5
		h-1.7v-13.7c1.9-0.5,5.1-1.1,9.4-1.8c4.3-0.7,8.7-1,13.1-1c10.4,0,17.9,1.6,22.5,4.8s6.9,8.2,6.9,15v38.7H482V535z M491.7,456.1v1
		L473.8,476h-12.5l12.5-19.9H491.7z M482,526.2v-11.8c-2.5,0.2-5.1,0.5-8,0.8c-2.9,0.4-5.1,0.8-6.5,1.2c-1.8,0.6-3.2,1.4-4.2,2.5
		c-1,1.1-1.4,2.5-1.4,4.3c0,1.2,0.1,2.1,0.3,2.9c0.2,0.7,0.7,1.4,1.5,2.1c0.8,0.7,1.7,1.2,2.8,1.5c1.1,0.3,2.8,0.5,5.1,0.5
		c1.8,0,3.7-0.4,5.6-1.1C478.9,528.4,480.5,527.4,482,526.2z"/>
	<path class="st0" d="M535.2,541.1h-18.3v-78.9h18.3V541.1z"/>
	<path class="st0" d="M610.6,512.6c0,9.4-2.7,16.7-8.2,22.1s-13.1,8.1-23,8.1s-17.5-2.7-23-8.1s-8.2-12.8-8.2-22.1
		c0-9.4,2.7-16.8,8.2-22.2s13.1-8.1,22.9-8.1c9.9,0,17.6,2.7,23,8.1C607.9,495.9,610.6,503.3,610.6,512.6z M588.1,526.5
		c1.2-1.5,2.1-3.2,2.7-5.2s0.9-4.9,0.9-8.5c0-3.3-0.3-6.2-0.9-8.4c-0.6-2.3-1.5-4.1-2.5-5.4c-1.1-1.4-2.4-2.4-3.9-2.9
		c-1.5-0.6-3.2-0.9-4.9-0.9s-3.3,0.2-4.7,0.7c-1.4,0.5-2.7,1.4-3.9,2.8c-1.1,1.3-2,3.1-2.7,5.4s-1,5.2-1,8.7c0,3.1,0.3,5.8,0.9,8.1
		c0.6,2.3,1.4,4.1,2.5,5.5c1.1,1.3,2.4,2.3,3.9,2.9c1.5,0.6,3.2,0.9,5.1,0.9c1.7,0,3.2-0.3,4.7-0.8
		C585.8,528.7,587.1,527.8,588.1,526.5z"/>
	<path class="st0" d="M679,534.5c0,5.3-0.8,9.8-2.3,13.5s-3.7,6.5-6.4,8.6c-2.7,2.1-6,3.6-9.9,4.5c-3.9,0.9-8.2,1.4-13.1,1.4
		c-4,0-7.9-0.2-11.7-0.7c-3.8-0.5-7.2-1-10-1.7v-14.3h2.2c2.2,0.9,4.9,1.7,8.2,2.4c3.2,0.7,6.1,1.1,8.6,1.1c3.4,0,6.1-0.3,8.2-0.9
		c2.1-0.6,3.7-1.5,4.8-2.7c1-1.1,1.8-2.5,2.3-4.2c0.5-1.7,0.7-3.7,0.7-6.1v-1.1c-2.2,1.8-4.6,3.2-7.3,4.3c-2.7,1-5.6,1.6-8.9,1.6
		c-8,0-14.1-2.4-18.4-7.2c-4.3-4.8-6.5-12.1-6.5-21.9c0-4.7,0.7-8.8,2-12.2c1.3-3.4,3.2-6.4,5.6-8.9c2.2-2.4,5-4.2,8.2-5.5
		c3.3-1.3,6.6-2,10-2c3.1,0,5.9,0.4,8.4,1.1c2.5,0.7,4.8,1.7,6.9,3l0.7-2.5H679V534.5z M660.7,523.1v-25.8c-1-0.4-2.3-0.8-3.8-1
		c-1.5-0.3-2.9-0.4-4.1-0.4c-4.8,0-8.4,1.4-10.8,4.1c-2.4,2.8-3.6,6.6-3.6,11.5c0,5.5,1,9.3,3.1,11.5c2,2.2,5.1,3.2,9.1,3.2
		c1.8,0,3.6-0.3,5.4-0.9C657.7,524.8,659.3,524.1,660.7,523.1z"/>
	<path class="st0" d="M754.5,512.6c0,9.4-2.7,16.7-8.2,22.1s-13.1,8.1-23,8.1s-17.5-2.7-23-8.1s-8.2-12.8-8.2-22.1
		c0-9.4,2.7-16.8,8.2-22.2s13.1-8.1,22.9-8.1c9.9,0,17.6,2.7,23,8.1C751.8,495.9,754.5,503.3,754.5,512.6z M732,526.5
		c1.2-1.5,2.1-3.2,2.7-5.2s0.9-4.9,0.9-8.5c0-3.3-0.3-6.2-0.9-8.4c-0.6-2.3-1.5-4.1-2.5-5.4c-1.1-1.4-2.4-2.4-3.9-2.9
		c-1.5-0.6-3.2-0.9-4.9-0.9s-3.3,0.2-4.7,0.7c-1.4,0.5-2.7,1.4-3.9,2.8c-1.1,1.3-2,3.1-2.7,5.4s-1,5.2-1,8.7c0,3.1,0.3,5.8,0.9,8.1
		c0.6,2.3,1.4,4.1,2.5,5.5c1.1,1.3,2.4,2.3,3.9,2.9c1.5,0.6,3.2,0.9,5.1,0.9c1.7,0,3.2-0.3,4.7-0.8C729.7,528.7,731,527.8,732,526.5
		z"/>
</g>
<polygon class="st0" points="323.9,421.5 95.5,421.5 95.6,473.2 74,473.2 74,400.3 323.9,400.3 "/>
<polygon class="st0" points="323.9,577.4 95.5,577.4 95.6,525.7 74,525.7 74,598.6 323.9,598.6 "/>
<polygon class="st0" points="686.1,421.5 914.5,421.5 914.4,473.2 936,473.2 936,400.3 686.1,400.3 "/>
<polygon class="st0" points="686.1,577.4 914.5,577.4 914.4,525.7 936,525.7 936,598.6 686.1,598.6 "/>
</svg>
