<?xml version="1.0" encoding="utf-8"?>
<!-- Generator: Adobe Illustrator 21.0.0, SVG Export Plug-In . SVG Version: 6.00 Build 0)  -->
<svg version="1.1" id="Layer_1" xmlns="http://www.w3.org/2000/svg" xmlns:xlink="http://www.w3.org/1999/xlink" x="0px" y="0px"
	 viewBox="0 0 1000 1000" style="enable-background:new 0 0 1000 1000;" xml:space="preserve">
<style type="text/css">
	.st0{fill:#FFFFFF;}
</style>
<g>
	<path class="st0" d="M281.6,541.1h-18.8l-32.1-51.8v51.8h-17.9v-75.5h23.3l27.5,43.3v-43.3h17.9V541.1z"/>
	<path class="st0" d="M358,512.6c0,9.4-2.7,16.7-8.2,22.1c-5.5,5.4-13.1,8.1-23,8.1c-9.9,0-17.5-2.7-23-8.1
		c-5.5-5.4-8.2-12.8-8.2-22.1c0-9.4,2.7-16.8,8.2-22.2c5.5-5.4,13.1-8.1,22.9-8.1c9.9,0,17.6,2.7,23,8.1
		C355.3,495.9,358,503.3,358,512.6z M335.6,526.5c1.2-1.5,2.1-3.2,2.7-5.2c0.6-2,0.9-4.9,0.9-8.5c0-3.3-0.3-6.2-0.9-8.4
		c-0.6-2.3-1.5-4.1-2.5-5.4c-1.1-1.4-2.4-2.4-3.9-2.9c-1.5-0.6-3.2-0.9-4.9-0.9c-1.8,0-3.3,0.2-4.7,0.7c-1.4,0.5-2.7,1.4-3.9,2.8
		c-1.1,1.3-2,3.1-2.7,5.4s-1,5.2-1,8.7c0,3.1,0.3,5.8,0.9,8.1c0.6,2.3,1.4,4.1,2.5,5.5c1.1,1.3,2.4,2.3,3.9,2.9
		c1.5,0.6,3.2,0.9,5.1,0.9c1.7,0,3.2-0.3,4.7-0.8C333.2,528.7,334.5,527.8,335.6,526.5z"/>
	<path class="st0" d="M428.5,484.1l-22,56.9h-20.7L364,484.1h19.3l13.2,39.2l13-39.2H428.5z"/>
	<path class="st0" d="M457.4,476h-19.3v-13.8h19.3V476z M456.9,541.1h-18.3v-56.9h18.3V541.1z"/>
	<path class="st0" d="M529.5,541.1h-18.3v-5.9c-3.1,2.6-6.1,4.5-8.8,5.7c-2.7,1.2-5.9,1.8-9.5,1.8c-6.9,0-12.5-2.7-16.6-8
		c-4.2-5.3-6.2-12.5-6.2-21.6c0-4.8,0.7-9.1,2.1-12.9c1.4-3.7,3.3-6.9,5.7-9.6c2.3-2.5,5.1-4.5,8.4-5.9c3.3-1.4,6.6-2.1,9.8-2.1
		c3.4,0,6.2,0.4,8.4,1.1c2.2,0.7,4.4,1.6,6.7,2.8v-24.2h18.3V541.1z M511.2,525.4v-28c-1.3-0.5-2.6-0.9-4-1.2
		c-1.4-0.2-2.7-0.4-3.9-0.4c-4.8,0-8.4,1.5-10.8,4.5c-2.4,3-3.6,7.2-3.6,12.5c0,5.6,1,9.6,2.9,12.2c1.9,2.5,5,3.8,9.3,3.8
		c1.7,0,3.4-0.3,5.3-0.9C508.1,527.2,509.8,526.4,511.2,525.4z"/>
	<path class="st0" d="M581.2,535c-1,0.7-2.2,1.6-3.7,2.7c-1.5,1-2.8,1.9-4.1,2.5c-1.8,0.8-3.7,1.4-5.6,1.8c-1.9,0.4-4,0.6-6.3,0.6
		c-5.4,0-9.9-1.7-13.6-5s-5.5-7.6-5.5-12.8c0-4.2,0.9-7.6,2.8-10.2s4.5-4.7,7.9-6.2c3.4-1.5,7.6-2.6,12.6-3.2
		c5-0.6,10.2-1.1,15.6-1.4v-0.3c0-3.1-1.3-5.3-3.9-6.5c-2.6-1.2-6.4-1.8-11.4-1.8c-3,0-6.2,0.5-9.6,1.6s-5.9,1.9-7.4,2.5h-1.7v-13.7
		c1.9-0.5,5.1-1.1,9.4-1.8c4.3-0.7,8.7-1,13.1-1c10.4,0,17.9,1.6,22.5,4.8c4.6,3.2,6.9,8.2,6.9,15v38.7h-18.1V535z M581.2,526.2
		v-11.8c-2.5,0.2-5.1,0.5-8,0.8c-2.9,0.4-5.1,0.8-6.5,1.2c-1.8,0.6-3.2,1.4-4.2,2.5c-1,1.1-1.4,2.5-1.4,4.3c0,1.2,0.1,2.1,0.3,2.9
		c0.2,0.7,0.7,1.4,1.5,2.1c0.8,0.7,1.7,1.2,2.8,1.5c1.1,0.3,2.8,0.5,5.1,0.5c1.8,0,3.7-0.4,5.6-1.1
		C578.2,528.4,579.8,527.4,581.2,526.2z"/>
	<path class="st0" d="M671.5,541.1h-18.3v-5.9c-3.1,2.6-6.1,4.5-8.8,5.7c-2.7,1.2-5.9,1.8-9.5,1.8c-6.9,0-12.5-2.7-16.6-8
		c-4.2-5.3-6.2-12.5-6.2-21.6c0-4.8,0.7-9.1,2.1-12.9c1.4-3.7,3.3-6.9,5.8-9.6c2.3-2.5,5.1-4.5,8.4-5.9c3.3-1.4,6.6-2.1,9.8-2.1
		c3.4,0,6.2,0.4,8.4,1.1c2.2,0.7,4.4,1.6,6.7,2.8v-24.2h18.3V541.1z M653.2,525.4v-28c-1.3-0.5-2.6-0.9-4-1.2
		c-1.4-0.2-2.7-0.4-3.9-0.4c-4.8,0-8.4,1.5-10.8,4.5c-2.4,3-3.6,7.2-3.6,12.5c0,5.6,1,9.6,2.9,12.2c1.9,2.5,5,3.8,9.3,3.8
		c1.7,0,3.4-0.3,5.3-0.9C650.1,527.2,651.8,526.4,653.2,525.4z"/>
	<path class="st0" d="M744.8,516H703c0.3,4.5,2,7.9,5.1,10.2c3.1,2.4,7.7,3.5,13.8,3.5c3.9,0,7.6-0.7,11.2-2.1
		c3.6-1.4,6.5-2.9,8.6-4.5h2v14.7c-4.1,1.7-8,2.9-11.7,3.6c-3.7,0.7-7.7,1.1-12.1,1.1c-11.4,0-20.2-2.6-26.3-7.7
		c-6.1-5.1-9.1-12.5-9.1-22c0-9.4,2.9-16.8,8.6-22.3c5.8-5.5,13.7-8.2,23.7-8.2c9.3,0,16.2,2.3,20.9,7c4.7,4.7,7,11.4,7,20.2V516z
		 M726.7,505.3c-0.1-3.8-1-6.7-2.8-8.6c-1.8-1.9-4.6-2.9-8.4-2.9c-3.5,0-6.4,0.9-8.7,2.7c-2.3,1.8-3.5,4.8-3.8,8.8H726.7z"/>
	<path class="st0" d="M807.2,523c0,5.9-2.6,10.6-7.9,14.2s-12.5,5.4-21.7,5.4c-5.1,0-9.7-0.5-13.8-1.4s-7.4-2-9.9-3.1v-15h1.7
		c0.9,0.6,2,1.3,3.2,2.1c1.2,0.8,2.9,1.6,5.1,2.5c1.9,0.8,4,1.4,6.4,2s5,0.8,7.7,0.8c3.6,0,6.2-0.4,8-1.2c1.7-0.8,2.6-2,2.6-3.5
		c0-1.4-0.5-2.4-1.5-3c-1-0.6-2.9-1.2-5.8-1.8c-1.4-0.3-3.2-0.6-5.5-1c-2.3-0.4-4.4-0.8-6.3-1.3c-5.2-1.4-9-3.5-11.5-6.3
		c-2.5-2.9-3.8-6.4-3.8-10.7c0-5.5,2.6-10,7.8-13.7c5.2-3.6,12.3-5.5,21.3-5.5c4.3,0,8.3,0.4,12.2,1.3c3.9,0.9,7,1.8,9.2,2.8V501
		H803c-2.7-1.9-5.8-3.4-9.3-4.5c-3.5-1.2-7-1.7-10.5-1.7c-2.9,0-5.4,0.4-7.4,1.2c-2,0.8-3,2-3,3.4c0,1.4,0.5,2.4,1.4,3.1
		s3.1,1.4,6.4,2.1c1.9,0.4,3.9,0.7,6,1.1c2.1,0.4,4.3,0.8,6.5,1.3c4.8,1.3,8.3,3.2,10.6,5.9C806,515.6,807.2,519,807.2,523z"/>
</g>
<polygon class="st0" points="249.9,421.5 21.5,421.5 21.6,473.2 0,473.2 0,400.3 249.9,400.3 "/>
<polygon class="st0" points="249.9,577.4 21.5,577.4 21.6,525.7 0,525.7 0,598.6 249.9,598.6 "/>
<polygon class="st0" points="750.1,421.5 978.5,421.5 978.4,473.2 1000,473.2 1000,400.3 750.1,400.3 "/>
<polygon class="st0" points="750.1,577.4 978.5,577.4 978.4,525.7 1000,525.7 1000,598.6 750.1,598.6 "/>
</svg>
