<?xml version="1.0" encoding="utf-8"?>
<!-- Generator: Adobe Illustrator 21.0.0, SVG Export Plug-In . SVG Version: 6.00 Build 0)  -->
<svg version="1.1" id="Layer_1" xmlns="http://www.w3.org/2000/svg" xmlns:xlink="http://www.w3.org/1999/xlink" x="0px" y="0px"
	 viewBox="0 0 1000 1000" style="enable-background:new 0 0 1000 1000;" xml:space="preserve">
<style type="text/css">
	.st0{fill:#FFFFFF;}
</style>
<g>
	<path class="st0" d="M155.1,503.3c0,12-3.4,21.6-10.3,28.7c-6.9,7.1-16.4,10.6-28.6,10.6c-12.1,0-21.7-3.5-28.6-10.6
		c-6.9-7.1-10.3-16.6-10.3-28.7c0-12.1,3.4-21.7,10.3-28.8c6.9-7,16.4-10.6,28.6-10.6c12.1,0,21.6,3.5,28.6,10.6
		C151.7,481.6,155.1,491.2,155.1,503.3z M129.3,522.5c1.9-2.3,3.3-5,4.2-8.1c0.9-3.1,1.4-6.8,1.4-11c0-4.5-0.5-8.4-1.6-11.6
		c-1-3.2-2.4-5.7-4.1-7.7c-1.7-2-3.7-3.5-6-4.4c-2.2-0.9-4.6-1.4-7-1.4c-2.5,0-4.8,0.4-7,1.3c-2.2,0.9-4.2,2.3-6,4.4
		c-1.7,1.9-3.1,4.5-4.1,7.8c-1.1,3.3-1.6,7.2-1.6,11.6c0,4.5,0.5,8.3,1.5,11.5c1,3.2,2.4,5.7,4.1,7.7c1.7,2,3.7,3.5,5.9,4.4
		c2.3,0.9,4.6,1.4,7.2,1.4c2.5,0,4.9-0.5,7.2-1.4C125.7,526,127.6,524.5,129.3,522.5z"/>
	<path class="st0" d="M228.4,511.8c0,4.7-0.7,9-2.2,12.8s-3.3,7-5.6,9.5c-2.4,2.6-5.2,4.6-8.3,6c-3.1,1.4-6.4,2-9.9,2
		c-3.2,0-6-0.3-8.3-1c-2.3-0.7-4.6-1.7-6.9-2.9V562H169v-77.8h18.3v5.9c2.8-2.2,5.7-4,8.6-5.4c2.9-1.4,6.3-2.1,10.1-2.1
		c7.1,0,12.6,2.6,16.5,7.8C226.4,495.6,228.4,502.7,228.4,511.8z M209.6,512.2c0-5.5-0.9-9.6-2.8-12.1c-1.9-2.5-4.9-3.7-9-3.7
		c-1.7,0-3.5,0.3-5.3,0.8c-1.8,0.5-3.6,1.3-5.2,2.3V528c1.2,0.5,2.5,0.8,3.9,0.9c1.4,0.1,2.7,0.2,4.1,0.2c4.8,0,8.4-1.4,10.8-4.2
		S209.6,517.9,209.6,512.2z"/>
	<path class="st0" d="M299.8,512.6c0,9.4-2.7,16.7-8.2,22.1c-5.5,5.4-13.1,8.1-23,8.1c-9.9,0-17.5-2.7-23-8.1
		c-5.5-5.4-8.2-12.8-8.2-22.1c0-9.4,2.7-16.8,8.2-22.2c5.5-5.4,13.1-8.1,22.9-8.1c9.9,0,17.6,2.7,23,8.1
		C297.1,495.9,299.8,503.3,299.8,512.6z M277.3,526.5c1.2-1.5,2.1-3.2,2.7-5.2c0.6-2,0.9-4.9,0.9-8.5c0-3.3-0.3-6.2-0.9-8.4
		c-0.6-2.3-1.5-4.1-2.5-5.4c-1.1-1.4-2.4-2.4-3.9-2.9c-1.5-0.6-3.2-0.9-4.9-0.9c-1.8,0-3.3,0.2-4.7,0.7c-1.4,0.5-2.7,1.4-3.9,2.8
		c-1.1,1.3-2,3.1-2.7,5.4s-1,5.2-1,8.7c0,3.1,0.3,5.8,0.9,8.1c0.6,2.3,1.4,4.1,2.5,5.5c1.1,1.3,2.4,2.3,3.9,2.9
		c1.5,0.6,3.2,0.9,5.1,0.9c1.7,0,3.2-0.3,4.7-0.8C275,528.7,276.3,527.8,277.3,526.5z"/>
	<path class="st0" d="M354.2,501.5h-1.6c-0.8-0.3-2-0.5-3.7-0.6c-1.7-0.1-3.2-0.2-4.3-0.2c-2.6,0-4.9,0.2-6.9,0.5
		c-2,0.3-4.1,0.9-6.4,1.7v38.1h-18.3v-56.9h18.3v8.4c4-3.4,7.5-5.7,10.5-6.9c3-1.1,5.7-1.7,8.2-1.7c0.6,0,1.4,0,2.2,0.1
		c0.8,0,1.5,0.1,2.1,0.2V501.5z"/>
	<path class="st0" d="M400.9,540.6c-2,0.5-4,0.9-6.2,1.2c-2.2,0.3-4.9,0.4-8.1,0.4c-7.1,0-12.4-1.4-15.8-4.3
		c-3.5-2.9-5.2-7.8-5.2-14.8v-26.6h-7.5v-12.4h7.5v-16.3h18.3v16.3h17v12.4h-17v20.2c0,2,0,3.7,0.1,5.2c0,1.5,0.3,2.8,0.8,4
		c0.5,1.2,1.3,2.1,2.5,2.8c1.2,0.7,2.9,1,5.2,1c0.9,0,2.2-0.2,3.7-0.6c1.5-0.4,2.6-0.8,3.2-1.1h1.5V540.6z"/>
	<path class="st0" d="M468.6,541.1h-18.3v-6.3c-3.4,2.6-6.5,4.5-9.3,5.9c-2.8,1.3-6.1,2-10,2c-6.3,0-11.1-1.8-14.5-5.4
		c-3.4-3.6-5.1-9-5.1-16v-37.1h18.3v28.2c0,2.9,0.1,5.3,0.3,7.2c0.2,1.9,0.6,3.5,1.3,4.7c0.6,1.3,1.6,2.2,2.9,2.7
		c1.3,0.6,3.1,0.9,5.5,0.9c1.6,0,3.3-0.3,5.2-0.9c1.9-0.6,3.7-1.4,5.5-2.5v-40.4h18.3V541.1z"/>
	<path class="st0" d="M543,541.1h-18.3v-28.2c0-2.3-0.1-4.6-0.4-6.9s-0.6-4-1.2-5c-0.7-1.3-1.7-2.2-3-2.7c-1.3-0.6-3.1-0.9-5.5-0.9
		c-1.7,0-3.3,0.3-5,0.8c-1.7,0.5-3.6,1.4-5.6,2.6v40.4h-18.3v-56.9h18.3v6.3c3.2-2.5,6.4-4.5,9.3-5.8c3-1.4,6.3-2,10-2
		c6.1,0,10.9,1.8,14.4,5.4c3.5,3.6,5.2,8.9,5.2,16.1V541.1z"/>
	<path class="st0" d="M578.6,476h-19.3v-13.8h19.3V476z M578.1,541.1h-18.3v-56.9h18.3V541.1z"/>
	<path class="st0" d="M650.7,541.1h-18.3v-5.9c-3.1,2.6-6.1,4.5-8.8,5.7c-2.7,1.2-5.9,1.8-9.5,1.8c-6.9,0-12.5-2.7-16.6-8
		c-4.2-5.3-6.2-12.5-6.2-21.6c0-4.8,0.7-9.1,2.1-12.9c1.4-3.7,3.3-6.9,5.8-9.6c2.3-2.5,5.1-4.5,8.4-5.9c3.3-1.4,6.6-2.1,9.8-2.1
		c3.4,0,6.2,0.4,8.4,1.1c2.2,0.7,4.4,1.6,6.7,2.8v-24.2h18.3V541.1z M632.4,525.4v-28c-1.3-0.5-2.6-0.9-4-1.2
		c-1.4-0.2-2.7-0.4-3.9-0.4c-4.8,0-8.4,1.5-10.8,4.5c-2.4,3-3.6,7.2-3.6,12.5c0,5.6,1,9.6,2.9,12.2c1.9,2.5,5,3.8,9.3,3.8
		c1.7,0,3.4-0.3,5.3-0.9C629.3,527.2,631,526.4,632.4,525.4z"/>
	<path class="st0" d="M702.4,535c-1,0.7-2.2,1.6-3.7,2.7c-1.5,1-2.8,1.9-4.1,2.5c-1.8,0.8-3.7,1.4-5.6,1.8c-1.9,0.4-4,0.6-6.3,0.6
		c-5.4,0-9.9-1.7-13.6-5s-5.5-7.6-5.5-12.8c0-4.2,0.9-7.6,2.8-10.2s4.5-4.7,7.9-6.2c3.4-1.5,7.6-2.6,12.6-3.2
		c5-0.6,10.2-1.1,15.6-1.4v-0.3c0-3.1-1.3-5.3-3.9-6.5c-2.6-1.2-6.4-1.8-11.4-1.8c-3,0-6.2,0.5-9.6,1.6s-5.9,1.9-7.4,2.5h-1.7v-13.7
		c1.9-0.5,5.1-1.1,9.4-1.8c4.3-0.7,8.7-1,13.1-1c10.4,0,17.9,1.6,22.5,4.8c4.6,3.2,6.9,8.2,6.9,15v38.7h-18.1V535z M702.4,526.2
		v-11.8c-2.5,0.2-5.1,0.5-8,0.8c-2.9,0.4-5.1,0.8-6.5,1.2c-1.8,0.6-3.2,1.4-4.2,2.5c-1,1.1-1.4,2.5-1.4,4.3c0,1.2,0.1,2.1,0.3,2.9
		c0.2,0.7,0.7,1.4,1.5,2.1c0.8,0.7,1.7,1.2,2.8,1.5c1.1,0.3,2.8,0.5,5.1,0.5c1.8,0,3.7-0.4,5.6-1.1
		C699.4,528.4,701,527.4,702.4,526.2z"/>
	<path class="st0" d="M792.7,541.1h-18.3v-5.9c-3.1,2.6-6.1,4.5-8.8,5.7c-2.7,1.2-5.9,1.8-9.5,1.8c-6.9,0-12.5-2.7-16.6-8
		c-4.2-5.3-6.2-12.5-6.2-21.6c0-4.8,0.7-9.1,2.1-12.9c1.4-3.7,3.3-6.9,5.8-9.6c2.3-2.5,5.1-4.5,8.4-5.9c3.3-1.4,6.6-2.1,9.8-2.1
		c3.4,0,6.2,0.4,8.4,1.1c2.2,0.7,4.4,1.6,6.7,2.8v-24.2h18.3V541.1z M774.4,525.4v-28c-1.3-0.5-2.6-0.9-4-1.2
		c-1.4-0.2-2.7-0.4-3.9-0.4c-4.8,0-8.4,1.5-10.8,4.5c-2.4,3-3.6,7.2-3.6,12.5c0,5.6,1,9.6,2.9,12.2c1.9,2.5,5,3.8,9.3,3.8
		c1.7,0,3.4-0.3,5.3-0.9C771.3,527.2,773,526.4,774.4,525.4z"/>
	<path class="st0" d="M866,516h-41.8c0.3,4.5,2,7.9,5.1,10.2c3.1,2.4,7.7,3.5,13.8,3.5c3.9,0,7.6-0.7,11.2-2.1
		c3.6-1.4,6.5-2.9,8.6-4.5h2v14.7c-4.1,1.7-8,2.9-11.7,3.6c-3.7,0.7-7.7,1.1-12.1,1.1c-11.4,0-20.2-2.6-26.3-7.7
		c-6.1-5.1-9.1-12.5-9.1-22c0-9.4,2.9-16.8,8.6-22.3c5.8-5.5,13.7-8.2,23.7-8.2c9.3,0,16.2,2.3,20.9,7c4.7,4.7,7,11.4,7,20.2V516z
		 M847.9,505.3c-0.1-3.8-1-6.7-2.8-8.6c-1.8-1.9-4.6-2.9-8.4-2.9c-3.5,0-6.4,0.9-8.7,2.7c-2.3,1.8-3.5,4.8-3.8,8.8H847.9z"/>
	<path class="st0" d="M928.4,523c0,5.9-2.6,10.6-7.9,14.2s-12.5,5.4-21.7,5.4c-5.1,0-9.7-0.5-13.8-1.4s-7.4-2-9.9-3.1v-15h1.7
		c0.9,0.6,2,1.3,3.2,2.1c1.2,0.8,2.9,1.6,5.1,2.5c1.9,0.8,4,1.4,6.4,2s5,0.8,7.7,0.8c3.6,0,6.2-0.4,8-1.2c1.7-0.8,2.6-2,2.6-3.5
		c0-1.4-0.5-2.4-1.5-3c-1-0.6-2.9-1.2-5.8-1.8c-1.4-0.3-3.2-0.6-5.5-1c-2.3-0.4-4.4-0.8-6.3-1.3c-5.2-1.4-9-3.5-11.5-6.3
		c-2.5-2.9-3.8-6.4-3.8-10.7c0-5.5,2.6-10,7.8-13.7c5.2-3.6,12.3-5.5,21.3-5.5c4.3,0,8.3,0.4,12.2,1.3c3.9,0.9,7,1.8,9.2,2.8V501
		h-1.6c-2.7-1.9-5.8-3.4-9.3-4.5c-3.5-1.2-7-1.7-10.5-1.7c-2.9,0-5.4,0.4-7.4,1.2c-2,0.8-3,2-3,3.4c0,1.4,0.5,2.4,1.4,3.1
		s3.1,1.4,6.4,2.1c1.9,0.4,3.9,0.7,6,1.1c2.1,0.4,4.3,0.8,6.5,1.3c4.8,1.3,8.3,3.2,10.6,5.9C927.2,515.6,928.4,519,928.4,523z"/>
</g>
<polygon class="st0" points="249.9,421.5 21.5,421.5 21.6,473.2 0,473.2 0,400.3 249.9,400.3 "/>
<polygon class="st0" points="249.9,577.4 21.5,577.4 21.6,525.7 0,525.7 0,598.6 249.9,598.6 "/>
<polygon class="st0" points="750.1,421.5 978.5,421.5 978.4,473.2 1000,473.2 1000,400.3 750.1,400.3 "/>
<polygon class="st0" points="750.1,577.4 978.5,577.4 978.4,525.7 1000,525.7 1000,598.6 750.1,598.6 "/>
</svg>
